<svg width="25" height="16" viewBox="0 0 25 16" fill="none" xmlns="http://www.w3.org/2000/svg">
<path d="M22.19 7.40312C22.182 6.69121 22.1794 5.97402 22.1768 5.25947H20.0463C20.0384 5.97138 20.0331 6.68594 20.0278 7.40312C19.3107 7.40576 18.5987 7.41103 17.8868 7.41894V9.55205C18.5987 9.55996 19.3159 9.56523 20.0278 9.57314C20.0358 10.2851 20.0358 10.9996 20.041 11.7115H22.1741C22.1768 10.9996 22.182 10.2851 22.1873 9.56787C22.9045 9.55996 23.6164 9.55732 24.3283 9.54941V7.41631C23.6191 7.41103 22.9019 7.41103 22.19 7.40312ZM8.21535 7.41367C8.21271 8.26533 8.21535 9.11963 8.21798 9.97129C9.64708 10.0187 11.0788 9.99765 12.5079 10.0187C11.8777 13.1907 7.56671 14.219 5.28595 12.1466C2.93927 10.3299 3.05001 6.3458 5.48898 4.6583C7.19494 3.29775 9.61808 3.63262 11.324 4.81123C11.9938 4.1916 12.6213 3.52715 13.2251 2.8416C11.8066 1.71045 10.0663 0.903611 8.21535 0.987986C4.34992 0.858787 0.798256 4.24433 0.734975 8.1124C0.487123 11.2738 2.56486 14.372 5.49689 15.4899C8.41837 16.6158 12.1651 15.8485 14.0319 13.2224C15.2633 11.5639 15.5296 9.42812 15.3846 7.42158C12.9931 7.40312 10.6042 7.40576 8.21535 7.41367Z" fill="#FF725E"/>
</svg>
