<svg width="21" height="21" viewBox="0 0 21 21" fill="none" xmlns="http://www.w3.org/2000/svg">
<path d="M4.94263 20.125H0.770281V6.68869H4.94263V20.125ZM2.85394 4.85588C1.51994 4.85588 0.4375 3.75044 0.4375 2.41644C0.4375 1.77556 0.692088 1.16093 1.14526 0.707758C1.59843 0.254588 2.21306 0 2.85394 0C3.49482 0 4.10945 0.254588 4.56262 0.707758C5.01579 1.16093 5.27038 1.77556 5.27038 2.41644C5.27038 3.75044 4.18794 4.85588 2.85394 4.85588ZM20.5582 20.125H16.3952V13.5844C16.3952 12.0254 16.3636 10.0266 14.226 10.0266C12.0568 10.0266 11.724 11.7199 11.724 13.4722V20.125H7.556V6.68869H11.5573V8.5215H11.6155C12.1725 7.46566 13.5331 6.35159 15.5629 6.35159C19.7855 6.35159 20.5618 9.13244 20.5618 12.7442V20.125H20.5582Z" fill="#FF725E"/>
</svg>
