<svg width="360" height="353" viewBox="0 0 360 353" fill="none" xmlns="http://www.w3.org/2000/svg">
<path d="M359.625 237.514H221.663V157.677H359.625V237.514ZM222.504 236.672H358.783V158.519H222.504V236.672Z" fill="#E0E0E0"/>
<path d="M331.164 200.247H240.14V202.916H331.164V200.247Z" fill="#F0F0F0"/>
<path d="M337.435 210.197H240.14V213.11H337.435V210.197Z" fill="#F0F0F0"/>
<path d="M337.435 220.265H240.14V223.178H337.435V220.265Z" fill="#F0F0F0"/>
<path d="M271.952 185.793H240.14V192.721H271.952V185.793Z" fill="#F0F0F0"/>
<path d="M359.204 158.098H222.109V170.809H359.204V158.098Z" fill="#E0E0E0"/>
<path d="M348.656 168.907C348.48 168.739 350.247 166.609 352.596 164.151C354.945 161.693 357.007 159.832 357.175 159.992C357.344 160.152 355.584 162.29 353.236 164.757C350.887 167.223 348.825 169.075 348.656 168.907Z" fill="white"/>
<path d="M357.192 168.907C357.024 169.075 354.97 167.223 352.613 164.757C350.256 162.29 348.496 160.161 348.673 159.992C348.85 159.824 350.895 161.676 353.253 164.151C355.61 166.626 357.352 168.739 357.192 168.907Z" fill="white"/>
<path d="M189.859 0H52.764V79.0028H189.859V0Z" fill="#E6E6E6"/>
<path d="M161.827 42.1573H70.8037V44.8258H161.827V42.1573Z" fill="#F0F0F0"/>
<path d="M168.099 52.1074H70.8037V55.02H168.099V52.1074Z" fill="#F0F0F0"/>
<path d="M168.099 62.1753H70.8037V65.0879H168.099V62.1753Z" fill="#F0F0F0"/>
<path d="M102.615 27.7036H70.8037V34.6316H102.615V27.7036Z" fill="#F0F0F0"/>
<path d="M189.859 0H52.764V12.7112H189.859V0Z" fill="#E0E0E0"/>
<path d="M178.849 10.7498C178.672 10.5898 180.44 8.45165 182.788 5.9936C185.137 3.53554 187.199 1.67517 187.368 1.84353C187.536 2.01189 185.777 4.14164 183.428 6.59969C181.079 9.05775 179.017 10.9013 178.849 10.7498Z" fill="white"/>
<path d="M187.368 10.7498C187.199 10.9181 185.145 9.06618 182.788 6.59971C180.431 4.13323 178.672 2.0119 178.849 1.84354C179.025 1.67518 181.071 3.52714 183.428 5.99361C185.785 8.46008 187.544 10.5898 187.368 10.7498Z" fill="white"/>
<path d="M137.937 146.759H0V66.9146H137.937V146.759ZM0.841799 145.917H137.095V67.7564H0.841799V145.917Z" fill="#E0E0E0"/>
<path d="M109.484 109.493H18.4606V112.161H109.484V109.493Z" fill="#F0F0F0"/>
<path d="M115.756 119.443H18.4606V122.355H115.756V119.443Z" fill="#F0F0F0"/>
<path d="M115.756 129.511H18.4606V132.423H115.756V129.511Z" fill="#F0F0F0"/>
<path d="M50.2722 95.0391H18.4606V101.967H50.2722V95.0391Z" fill="#F0F0F0"/>
<path d="M137.516 67.3355H0.420898V80.0467H137.516V67.3355Z" fill="#E0E0E0"/>
<path d="M297.13 165.052H135.252V309.976H297.13V165.052Z" fill="#E6E6E6"/>
<path d="M143.392 119.401H16.5834V251.151H143.392V119.401Z" fill="#F0F0F0"/>
<path d="M143.392 119.401H16.5834V133.753H143.392V119.401Z" fill="#E0E0E0"/>
<path d="M27.0554 126.43C27.0323 126.95 26.8569 127.452 26.551 127.874C26.245 128.296 25.8219 128.618 25.3343 128.802C24.8467 128.985 24.3159 129.021 23.8079 128.906C23.2999 128.79 22.837 128.528 22.4767 128.152C22.1164 127.775 21.8745 127.302 21.781 126.789C21.6876 126.277 21.7467 125.748 21.951 125.269C22.1554 124.789 22.4959 124.381 22.9305 124.093C23.365 123.806 23.8744 123.652 24.3953 123.652C25.1158 123.67 25.8 123.972 26.2984 124.492C26.7968 125.013 27.069 125.709 27.0554 126.43Z" fill="white"/>
<path d="M37.8557 126.43C37.8342 126.953 37.6595 127.458 37.3531 127.882C37.0468 128.307 36.6224 128.631 36.1329 128.817C35.6433 129.002 35.1101 129.039 34.5997 128.923C34.0892 128.807 33.6241 128.544 33.2621 128.166C32.9001 127.788 32.6573 127.312 32.5638 126.797C32.4704 126.282 32.5304 125.751 32.7365 125.27C32.9426 124.789 33.2856 124.379 33.7228 124.091C34.16 123.803 34.6722 123.651 35.1956 123.652C35.9161 123.67 36.6002 123.972 37.0987 124.492C37.5971 125.013 37.8693 125.709 37.8557 126.43Z" fill="white"/>
<path d="M48.656 126.43C48.6345 126.953 48.4598 127.458 48.1534 127.882C47.8471 128.307 47.4227 128.631 46.9332 128.817C46.4436 129.002 45.9104 129.039 45.3999 128.923C44.8895 128.807 44.4244 128.544 44.0624 128.166C43.7004 127.788 43.4576 127.312 43.3641 126.797C43.2707 126.282 43.3307 125.751 43.5368 125.27C43.7429 124.789 44.0859 124.379 44.5231 124.091C44.9603 123.803 45.4725 123.651 45.9959 123.652C46.7164 123.67 47.4005 123.972 47.899 124.492C48.3974 125.013 48.6696 125.709 48.656 126.43Z" fill="white"/>
<path d="M341.518 28.8148H179.64V190.154H341.518V28.8148Z" fill="#F0F0F0"/>
<path d="M341.518 28.8148H179.64V47.7132H341.518V28.8148Z" fill="#E0E0E0"/>
<path d="M193.429 38.0746C193.399 38.7616 193.168 39.4248 192.765 39.9818C192.361 40.5388 191.803 40.965 191.16 41.2077C190.516 41.4503 189.816 41.4985 189.145 41.3464C188.475 41.1944 187.863 40.8487 187.388 40.3522C186.912 39.8558 186.592 39.2305 186.468 38.5541C186.345 37.8776 186.423 37.1797 186.692 36.547C186.962 35.9144 187.411 35.3749 187.985 34.9954C188.558 34.616 189.231 34.4134 189.918 34.4128C190.869 34.4348 191.772 34.8326 192.43 35.5188C193.087 36.2051 193.447 37.1241 193.429 38.0746Z" fill="white"/>
<path d="M206.62 35.5997C207.086 36.1065 207.393 36.7394 207.503 37.4196C207.612 38.0997 207.519 38.7971 207.235 39.4248C206.951 40.0524 206.489 40.5826 205.906 40.9493C205.322 41.316 204.644 41.5029 203.955 41.4869C203.267 41.4708 202.598 41.2524 202.032 40.8589C201.467 40.4654 201.03 39.9142 200.775 39.274C200.521 38.6338 200.46 37.9329 200.601 37.2585C200.743 36.5842 201.079 35.9663 201.569 35.4818C202.255 34.829 203.172 34.4748 204.119 34.4969C205.065 34.5189 205.965 34.9155 206.62 35.5997Z" fill="white"/>
<path d="M221.865 38.0746C221.835 38.7616 221.604 39.4248 221.201 39.9818C220.797 40.5388 220.239 40.965 219.596 41.2077C218.952 41.4503 218.252 41.4985 217.581 41.3464C216.911 41.1944 216.299 40.8487 215.823 40.3522C215.348 39.8558 215.028 39.2305 214.904 38.5541C214.781 37.8776 214.859 37.1797 215.128 36.547C215.398 35.9144 215.847 35.3749 216.421 34.9954C216.994 34.616 217.667 34.4134 218.354 34.4128C219.305 34.4348 220.208 34.8326 220.865 35.5188C221.523 36.2051 221.883 37.1241 221.865 38.0746Z" fill="white"/>
<path d="M306.549 352.781C306.549 352.899 248.095 353 176.012 353C103.929 353 45.4487 352.899 45.4487 352.781C45.4487 352.663 103.895 352.562 176.012 352.562C248.129 352.562 306.549 352.672 306.549 352.781Z" fill="#263238"/>
<path d="M249.593 249.728C236.588 240.645 233.641 223.784 234.155 208.623C234.239 206.098 233.961 203.421 235.165 201.207C236.369 198.993 239.18 197.469 241.445 198.53C243.322 199.414 244.139 201.602 245.191 203.412C246.595 205.823 248.652 207.787 251.125 209.078C252.733 209.919 254.728 210.424 256.319 209.549C258.508 208.345 258.761 205.34 258.744 202.815C258.744 198.117 258.716 193.426 258.66 188.74C258.508 186.223 258.764 183.699 259.417 181.265C260.2 178.874 261.943 176.66 264.325 175.986C266.707 175.313 269.679 176.702 270.217 179.16C270.31 180.201 270.336 181.247 270.293 182.292C270.361 183.344 270.849 184.497 271.834 184.817C272.819 185.137 273.846 184.404 274.603 183.664C277.196 181.138 278.964 177.847 280.605 174.598C282.247 171.348 283.855 168.006 286.212 165.237C288.569 162.467 291.826 160.27 295.471 160.06C299.116 159.849 302.913 162.088 303.822 165.624C304.731 169.16 302.669 172.771 300.455 175.641C297.114 179.902 293.176 183.659 288.762 186.795C287.901 187.266 287.213 188 286.801 188.891C286.254 190.575 287.845 192.258 289.503 192.789C291.38 193.412 293.417 193.218 295.396 193.454C297.374 193.69 299.478 194.548 300.228 196.4C301.255 198.976 299.1 201.67 296.987 203.438C292.744 206.973 287.926 209.755 282.743 211.662C280.891 212.335 278.947 212.933 277.449 214.229C275.95 215.526 275.058 217.79 275.959 219.566C276.859 221.343 279.174 221.907 281.119 221.545C283.063 221.183 284.789 220.139 286.641 219.44C290.101 218.135 294.562 218.371 296.743 221.359C297.418 222.389 297.846 223.561 297.992 224.783C298.138 226.006 297.998 227.246 297.584 228.405C296.742 230.713 295.445 232.828 293.771 234.626C288.258 241.214 281.094 246.219 273.012 249.13C264.99 251.908 257.557 252.666 249.585 249.745" fill="#FF725E"/>
<path d="M300.118 162.139C300.118 162.139 300.042 162.223 299.874 162.375L299.125 163.04C298.468 163.629 297.5 164.488 296.28 165.624C292.819 168.837 289.605 172.307 286.666 176.003C284.789 178.335 282.844 180.978 280.774 183.849C278.703 186.719 276.565 189.817 274.443 193.109C272.182 196.58 270.111 200.171 268.239 203.867C267.263 205.795 266.404 207.806 265.52 209.86L262.911 216.132C259.471 224.031 256.475 232.117 253.937 240.35C251.893 247.087 250.484 254 249.728 261C249.239 265.723 249.16 270.481 249.492 275.218C249.627 276.901 249.753 278.189 249.871 279.065C249.922 279.486 249.955 279.822 249.989 280.067V280.412C249.953 280.302 249.927 280.189 249.913 280.075C249.871 279.831 249.821 279.503 249.753 279.082C249.602 278.24 249.442 276.91 249.29 275.226C248.884 270.48 248.912 265.707 249.375 260.966C250.083 253.937 251.462 246.991 253.491 240.224C256.008 231.967 258.995 223.862 262.439 215.947L265.116 209.701C266 207.655 266.867 205.626 267.852 203.69C269.736 199.983 271.824 196.383 274.107 192.907C276.262 189.539 278.433 186.492 280.479 183.647C282.525 180.802 284.503 178.141 286.372 175.818C289.341 172.131 292.597 168.686 296.111 165.515C297.357 164.395 298.35 163.553 299.024 162.989L299.807 162.358C299.903 162.274 300.007 162.201 300.118 162.139Z" fill="#263238"/>
<path d="M267.961 203.673C267.843 203.326 267.761 202.968 267.717 202.604C267.583 201.905 267.431 200.921 267.254 199.641C266.892 197.116 266.522 193.656 266.126 189.826C265.731 185.995 265.285 182.527 264.914 180.027C264.721 178.781 264.552 177.78 264.434 177.081C264.342 176.723 264.294 176.356 264.291 175.986C264.436 176.324 264.541 176.677 264.603 177.039C264.788 177.729 264.998 178.722 265.234 179.977C265.714 182.502 266.185 185.937 266.581 189.775C266.977 193.614 267.313 196.981 267.574 199.599C267.701 200.777 267.81 201.779 267.894 202.579C267.96 202.94 267.982 203.307 267.961 203.673Z" fill="#263238"/>
<path d="M300.354 197.629C299.944 197.718 299.527 197.769 299.108 197.781C298.266 197.856 297.071 197.957 295.589 198.126C292.626 198.446 288.552 199.035 284.082 199.877C279.612 200.719 275.597 201.67 272.709 202.402C271.27 202.773 270.108 203.109 269.342 203.337C268.933 203.482 268.51 203.583 268.079 203.64C268.468 203.444 268.874 203.283 269.291 203.16C270.083 202.882 271.228 202.495 272.659 202.082C275.529 201.24 279.545 200.239 284.031 199.38C287.832 198.653 291.667 198.12 295.522 197.781C297.012 197.654 298.216 197.604 299.058 197.587C299.49 197.558 299.924 197.572 300.354 197.629Z" fill="#263238"/>
<path d="M253.903 239.635C253.814 239.513 253.74 239.38 253.685 239.239L253.129 238.069C252.649 237.051 252.001 235.544 251.226 233.7C249.661 229.996 247.666 224.811 245.544 219.053C243.423 213.295 241.47 208.11 239.988 204.364C239.265 202.545 238.667 201.055 238.221 199.944L237.749 198.74C237.684 198.602 237.639 198.454 237.615 198.303C237.704 198.424 237.778 198.557 237.833 198.698L238.389 199.868C238.86 200.887 239.517 202.394 240.292 204.237C241.857 207.941 243.852 213.127 245.974 218.885C248.095 224.642 250.048 229.828 251.53 233.574C252.254 235.392 252.851 236.882 253.289 237.993C253.483 238.473 253.642 238.835 253.769 239.197C253.834 239.336 253.879 239.483 253.903 239.635Z" fill="#263238"/>
<path d="M296.903 225.77C296.768 225.848 296.623 225.907 296.473 225.947L295.227 226.368L290.623 227.858C286.734 229.121 281.363 230.922 275.47 232.909C269.578 234.896 264.182 236.663 260.267 237.842C258.314 238.44 256.723 238.894 255.621 239.197L254.35 239.525C254.202 239.572 254.049 239.603 253.895 239.618C254.03 239.541 254.174 239.481 254.324 239.441L255.57 239.02L260.175 237.53C264.064 236.268 269.435 234.466 275.327 232.48C281.22 230.493 286.607 228.725 290.522 227.547C292.483 226.949 294.066 226.494 295.177 226.191L296.448 225.863C296.596 225.816 296.748 225.785 296.903 225.77Z" fill="#263238"/>
<path d="M279.359 21.5753L275.024 23.1242L273.164 17.4589C269.746 7.01218 258.853 1.46473 248.844 4.99187C238.835 8.519 233.507 19.9759 236.924 30.4226L238.785 36.0879L234.433 37.6452C232.773 38.2889 231.425 39.5474 230.67 41.159C229.914 42.7707 229.809 44.6115 230.375 46.2989L242.438 83.1613C242.688 83.9967 243.104 84.7731 243.661 85.4446C244.217 86.1161 244.903 86.6689 245.677 87.0702C246.451 87.4714 247.298 87.713 248.168 87.7804C249.037 87.8479 249.911 87.7399 250.738 87.4629L295.665 71.393C297.346 70.7504 298.713 69.4808 299.478 67.8512C300.242 66.2216 300.345 64.359 299.765 62.6551L287.693 25.7927C287.436 24.9597 287.014 24.187 286.452 23.5207C285.89 22.8544 285.2 22.3081 284.422 21.9145C283.644 21.5209 282.795 21.288 281.925 21.2297C281.055 21.1715 280.183 21.289 279.359 21.5753ZM245.115 27.4679C244.193 24.7516 244.359 21.7841 245.577 19.187C246.794 16.5899 248.97 14.5649 251.647 13.5361C252.969 13.0838 254.369 12.9024 255.763 13.0028C257.157 13.1031 258.516 13.4832 259.76 14.1204C261.003 14.7575 262.106 15.6387 263.002 16.7112C263.897 17.7838 264.568 19.0258 264.973 20.3631L266.825 26.0284L246.967 33.1332L245.115 27.4679ZM270.369 60.1802L273.45 69.5915C273.507 69.7802 273.488 69.9835 273.399 70.1591C273.31 70.3346 273.156 70.469 272.97 70.5343L268.652 72.0748C268.48 72.1225 268.296 72.1018 268.139 72.017C267.982 71.9323 267.864 71.7901 267.81 71.6202L264.704 62.251C262.991 62.1577 261.347 61.5434 259.993 60.4903C258.64 59.4372 257.64 57.9956 257.127 56.3584C256.395 54.1941 256.529 51.8305 257.5 49.7624C258.471 47.6943 260.205 46.0822 262.338 45.2635C263.391 44.9037 264.506 44.7596 265.616 44.8397C266.726 44.9199 267.809 45.2228 268.8 45.7302C269.79 46.2377 270.668 46.9394 271.382 47.7934C272.096 48.6475 272.63 49.6366 272.953 50.7015C273.495 52.3646 273.54 54.1494 273.082 55.8375C272.625 57.5256 271.685 59.0436 270.377 60.2055L270.369 60.1802Z" fill="#FF725E"/>
<path d="M274.831 23.0232C274.831 23.141 266.791 26.1631 256.791 29.7576C246.79 33.3521 238.633 36.2394 238.591 36.1553C238.549 36.0711 246.63 33.0238 256.639 29.4209C266.648 25.818 274.788 22.9138 274.831 23.0232Z" fill="#263238"/>
<path d="M284.377 24.5721C284.414 24.6452 284.445 24.7212 284.469 24.7994C284.536 24.9678 284.612 25.1866 284.713 25.456C284.932 26.0705 285.235 26.9207 285.614 27.9814L288.846 37.3927C290.193 41.3828 291.801 46.1137 293.586 51.3666C294.428 54.0014 295.421 56.7457 296.347 59.633C296.843 61.121 297.057 62.6882 296.978 64.2545C296.907 65.0691 296.675 65.8616 296.296 66.5863C295.892 67.3086 295.352 67.946 294.705 68.4635C293.405 69.4129 291.961 70.1488 290.429 70.6438L286.094 72.2011L277.886 75.139L263.988 80.0887L254.602 83.3886L252.077 84.2304L251.403 84.4493C251.331 84.4813 251.254 84.5012 251.176 84.5082C251.176 84.5082 251.243 84.5082 251.386 84.4072L252.043 84.1462L254.568 83.195L263.904 79.7604L277.777 74.7097L285.968 71.7465L290.303 70.1808C291.791 69.706 293.193 68.9924 294.453 68.0679C295.054 67.5877 295.557 66.996 295.934 66.3253C296.291 65.6551 296.506 64.9187 296.566 64.1619C296.643 62.6527 296.438 61.1424 295.96 59.7088C295.051 56.8467 294.091 54.0772 293.224 51.4423C291.473 46.1811 289.857 41.4333 288.577 37.4432C287.298 33.4531 286.22 30.2458 285.479 27.9898C285.126 26.8871 284.856 26.0284 284.637 25.4055L284.435 24.7321C284.41 24.681 284.39 24.6274 284.377 24.5721Z" fill="#263238"/>
<path d="M260.671 12.9637C260.671 12.9637 260.225 12.7448 259.4 12.4081C258.224 11.9563 256.981 11.7059 255.722 11.6673C253.855 11.6033 251.998 11.9541 250.284 12.6943C248.199 13.6161 246.416 15.107 245.14 16.9959C243.856 18.8795 243.167 21.1054 243.162 23.3852C243.18 25.2537 243.463 27.1103 244.004 28.899C244.442 30.431 244.896 31.6516 245.199 32.5019C245.378 32.9337 245.524 33.3783 245.637 33.8319C245.398 33.4281 245.198 33.0025 245.039 32.5608C244.694 31.719 244.197 30.5236 243.709 28.9831C243.11 27.1757 242.784 25.2889 242.741 23.3852C242.719 21.0192 243.424 18.7036 244.761 16.7518C246.082 14.7939 247.937 13.2569 250.107 12.3239C251.875 11.5796 253.79 11.2513 255.705 11.3643C256.991 11.4298 258.255 11.7294 259.434 12.2482C259.749 12.3936 260.053 12.5624 260.343 12.7533C260.463 12.8059 260.574 12.8769 260.671 12.9637Z" fill="#263238"/>
<path d="M261.059 45.9033C261.193 45.8219 261.334 45.7515 261.48 45.6929C261.901 45.5027 262.337 45.3478 262.784 45.2299C263.494 45.0204 264.226 44.8961 264.965 44.8595C265.97 44.8055 266.975 44.9573 267.919 45.3056C270.074 46.0632 272.053 48.2603 273.029 51.1982C273.497 52.7748 273.497 54.4535 273.029 56.0301C272.51 57.7413 271.579 59.2992 270.318 60.5674L270.369 60.3402C271.489 63.4127 272.709 66.7462 273.972 70.2229L274.048 70.4333L273.837 70.5091L271.909 71.1488L267.7 72.5547L267.49 72.622L267.423 72.4116C266.269 68.9265 265.007 65.6772 264.055 62.4867L264.241 62.6298C262.595 62.4932 261.026 61.8755 259.729 60.8536C258.555 59.9497 257.593 58.8006 256.909 57.4865C256.291 56.3211 255.984 55.0167 256.016 53.6984C256.055 52.351 256.392 51.029 257.001 49.8269C257.611 48.6248 258.479 47.5724 259.543 46.7451C259.981 46.3895 260.473 46.1054 261 45.9033C260.524 46.1854 260.063 46.4917 259.619 46.8209C258.45 47.8099 257.555 49.0823 257.018 50.5164C256.557 51.5978 256.342 52.7677 256.387 53.9423C256.432 55.1168 256.737 56.2668 257.279 57.3097C257.952 58.5739 258.891 59.6768 260.032 60.5422C261.269 61.5134 262.765 62.099 264.333 62.2258H264.476L264.518 62.3521C265.444 65.4835 266.716 68.7581 267.886 72.26L267.608 72.1253L271.817 70.7195L273.736 70.0713L273.601 70.3576C272.347 66.8809 271.135 63.539 270.024 60.4664V60.3402L270.125 60.2391C271.349 59.0235 272.261 57.5306 272.785 55.887C273.231 54.3789 273.231 52.7737 272.785 51.2656C271.867 48.4371 269.973 46.2905 267.919 45.5329C267.01 45.1823 266.039 45.0191 265.066 45.0531C264.338 45.0697 263.616 45.1686 262.911 45.3477C261.656 45.6592 261.067 45.9454 261.059 45.9033Z" fill="#263238"/>
<path d="M235.039 288.964L150.951 288.577C146.095 288.55 141.449 286.597 138.031 283.147C134.614 279.697 132.706 275.031 132.726 270.175L133.619 59.3805C133.629 56.9747 134.113 54.5944 135.043 52.3757C135.973 50.1571 137.332 48.1435 139.041 46.4502C140.75 44.7568 142.776 43.4169 145.003 42.5069C147.23 41.597 149.615 41.1349 152.02 41.1471L236.099 41.5344C240.955 41.5589 245.603 43.5097 249.022 46.9584C252.44 50.4071 254.351 55.0717 254.333 59.9277L253.44 270.714C253.43 273.121 252.947 275.502 252.016 277.721C251.086 279.941 249.728 281.956 248.019 283.65C246.311 285.345 244.285 286.687 242.058 287.598C239.83 288.51 237.445 288.974 235.039 288.964Z" fill="#455A64"/>
<path d="M235.973 48.7823H219.676C219.144 48.7921 218.619 48.9066 218.132 49.1193C217.645 49.3319 217.204 49.6385 216.835 50.0216C216.466 50.4046 216.176 50.8566 215.982 51.3517C215.787 51.8468 215.693 52.3753 215.703 52.9071V55.8618C215.713 56.3931 215.618 56.9212 215.423 57.4159C215.229 57.9105 214.939 58.3619 214.57 58.7443C214.201 59.1267 213.76 59.4325 213.272 59.6442C212.785 59.8559 212.261 59.9694 211.729 59.9782L179.96 59.8351C178.885 59.8064 177.866 59.3524 177.125 58.5727C176.385 57.793 175.985 56.7514 176.012 55.6766V52.7219C176.039 51.6485 175.64 50.6081 174.901 49.8287C174.163 49.0492 173.145 48.5942 172.072 48.5634H166.339L152.071 48.496C148.677 48.4758 145.414 49.8012 142.995 52.1821C140.576 54.5629 139.2 57.8051 139.166 61.1988L138.324 266.951C138.317 268.635 138.641 270.304 139.278 271.862C139.915 273.42 140.853 274.838 142.038 276.034C143.223 277.23 144.632 278.181 146.184 278.832C147.737 279.484 149.402 279.823 151.086 279.831L234.997 280.218C236.681 280.226 238.351 279.902 239.911 279.264C241.47 278.627 242.889 277.688 244.085 276.502C245.282 275.316 246.234 273.906 246.885 272.353C247.537 270.799 247.877 269.133 247.885 267.448L248.726 61.6954C248.746 58.2922 247.414 55.0202 245.023 52.5987C242.631 50.1773 239.376 48.8045 235.973 48.7823Z" fill="white"/>
<path d="M224.685 252.767L162.29 252.498C161.642 252.498 161.12 251.791 161.129 250.932L161.196 234.609C161.196 233.768 161.726 233.044 162.375 233.044L224.769 233.33C225.128 233.392 225.449 233.59 225.666 233.884C225.882 234.177 225.977 234.542 225.93 234.904L225.871 251.21C225.871 252.077 225.333 252.775 224.685 252.767Z" fill="#FF725E"/>
<path d="M181.724 245.942C181.301 245.942 180.894 245.874 180.504 245.739C180.119 245.603 179.821 245.424 179.61 245.202L179.845 244.739C180.051 244.945 180.325 245.113 180.667 245.243C181.008 245.367 181.361 245.43 181.724 245.43C182.233 245.43 182.615 245.338 182.87 245.153C183.125 244.964 183.252 244.72 183.252 244.421C183.252 244.194 183.182 244.012 183.041 243.877C182.905 243.741 182.737 243.638 182.537 243.568C182.336 243.492 182.057 243.41 181.699 243.324C181.271 243.215 180.93 243.112 180.675 243.015C180.42 242.912 180.2 242.757 180.016 242.551C179.837 242.345 179.748 242.066 179.748 241.714C179.748 241.426 179.824 241.166 179.975 240.933C180.127 240.695 180.36 240.505 180.675 240.364C180.989 240.223 181.379 240.153 181.846 240.153C182.171 240.153 182.488 240.199 182.797 240.291C183.111 240.378 183.383 240.499 183.61 240.657L183.407 241.136C183.168 240.979 182.914 240.863 182.643 240.787C182.372 240.705 182.106 240.665 181.846 240.665C181.347 240.665 180.97 240.762 180.715 240.958C180.466 241.147 180.341 241.394 180.341 241.698C180.341 241.925 180.409 242.109 180.545 242.25C180.686 242.386 180.859 242.492 181.065 242.568C181.277 242.638 181.558 242.717 181.911 242.803C182.328 242.906 182.664 243.009 182.919 243.112C183.179 243.21 183.399 243.362 183.578 243.568C183.757 243.768 183.846 244.042 183.846 244.389C183.846 244.676 183.767 244.939 183.61 245.178C183.458 245.411 183.223 245.598 182.903 245.739C182.583 245.874 182.19 245.942 181.724 245.942ZM185.157 240.201H185.759V245.893H185.157V240.201ZM192.368 240.201V245.893H191.872L188.212 241.275V245.893H187.611V240.201H188.107L191.774 244.82V240.201H192.368ZM198.234 243.047H198.811V245.218C198.546 245.451 198.231 245.63 197.868 245.755C197.505 245.88 197.123 245.942 196.722 245.942C196.152 245.942 195.64 245.817 195.185 245.568C194.729 245.319 194.372 244.974 194.111 244.535C193.851 244.091 193.721 243.595 193.721 243.047C193.721 242.5 193.851 242.006 194.111 241.567C194.372 241.123 194.729 240.776 195.185 240.527C195.64 240.277 196.155 240.153 196.73 240.153C197.163 240.153 197.562 240.223 197.925 240.364C198.288 240.499 198.595 240.703 198.844 240.974L198.47 241.356C198.02 240.911 197.448 240.689 196.754 240.689C196.293 240.689 195.876 240.792 195.502 240.998C195.133 241.199 194.843 241.481 194.632 241.844C194.42 242.202 194.315 242.603 194.315 243.047C194.315 243.492 194.42 243.893 194.632 244.251C194.843 244.609 195.133 244.89 195.502 245.096C195.871 245.302 196.285 245.405 196.746 245.405C197.331 245.405 197.827 245.259 198.234 244.966V243.047ZM204.935 245.942C204.198 245.942 203.624 245.731 203.212 245.308C202.8 244.885 202.594 244.27 202.594 243.462V240.201H203.195V243.438C203.195 244.099 203.344 244.592 203.643 244.917C203.941 245.243 204.372 245.405 204.935 245.405C205.505 245.405 205.938 245.243 206.237 244.917C206.535 244.592 206.684 244.099 206.684 243.438V240.201H207.269V243.462C207.269 244.27 207.063 244.885 206.651 245.308C206.245 245.731 205.673 245.942 204.935 245.942ZM211.213 240.201C211.939 240.201 212.508 240.375 212.92 240.722C213.332 241.069 213.538 241.546 213.538 242.153C213.538 242.76 213.332 243.237 212.92 243.584C212.508 243.925 211.939 244.096 211.213 244.096H209.684V245.893H209.082V240.201H211.213ZM211.197 243.568C211.76 243.568 212.191 243.446 212.489 243.202C212.788 242.952 212.937 242.603 212.937 242.153C212.937 241.692 212.788 241.34 212.489 241.096C212.191 240.846 211.76 240.722 211.197 240.722H209.684V243.568H211.197Z" fill="#E8E8E3"/>
<path d="M174.736 109.266L153.085 109.167L153.067 113.141L174.718 113.239L174.736 109.266Z" fill="#FF725E"/>
<path opacity="0.1" d="M174.736 109.266L153.085 109.167L153.067 113.141L174.718 113.239L174.736 109.266Z" fill="black"/>
<path d="M238.204 133.661C238.374 133.644 238.541 133.604 238.7 133.543C238.933 133.452 239.136 133.297 239.285 133.096C239.434 132.895 239.523 132.656 239.542 132.407C239.542 131.068 239.542 129.115 239.542 126.607C239.542 125.352 239.542 123.946 239.542 122.398C239.542 122.019 239.542 121.623 239.542 121.227C239.597 120.844 239.514 120.453 239.307 120.125C239.191 119.967 239.04 119.839 238.866 119.75C238.692 119.661 238.5 119.613 238.305 119.611H236.992H224.828L154.42 119.35C154.239 119.347 154.061 119.388 153.9 119.468C153.739 119.549 153.599 119.667 153.494 119.813C153.29 120.143 153.213 120.534 153.275 120.916C153.275 121.758 153.275 122.6 153.275 123.441C153.275 125.125 153.275 126.809 153.275 128.492C153.275 129.334 153.275 130.176 153.275 131.018C153.24 131.41 153.24 131.804 153.275 132.196C153.319 132.364 153.401 132.52 153.515 132.651C153.629 132.783 153.771 132.886 153.931 132.954C154.097 133.02 154.275 133.051 154.453 133.046H158.738L177.434 133.147L209.086 133.341L230.426 133.509L236.226 133.577H237.732C238.078 133.577 238.246 133.577 238.246 133.577H237.732H236.226H230.426H209.086L177.434 133.476L158.738 133.4H154.453C154.217 133.409 153.982 133.369 153.763 133.282C153.541 133.187 153.344 133.043 153.187 132.861C153.029 132.679 152.915 132.463 152.854 132.23C152.805 132.009 152.788 131.782 152.803 131.556V130.933C152.803 130.092 152.803 129.25 152.803 128.408C152.803 126.724 152.803 125.041 152.803 123.357C152.803 122.515 152.803 121.674 152.803 120.832C152.787 120.608 152.787 120.383 152.803 120.158C152.835 119.911 152.931 119.676 153.081 119.477C153.226 119.273 153.419 119.108 153.641 118.995C153.864 118.883 154.111 118.825 154.361 118.828L224.769 119.216L236.933 119.3H238.246C238.477 119.3 238.705 119.356 238.91 119.463C239.115 119.57 239.292 119.725 239.424 119.914C239.662 120.28 239.758 120.72 239.694 121.152C239.694 121.547 239.694 121.943 239.694 122.322C239.694 123.854 239.694 125.26 239.694 126.531C239.694 129.056 239.635 130.992 239.618 132.339C239.597 132.598 239.503 132.846 239.347 133.053C239.19 133.26 238.978 133.419 238.734 133.509C238.575 133.608 238.391 133.661 238.204 133.661Z" fill="#E0E0E0"/>
<path d="M199.186 123.576H159.588V127.288H199.186V123.576Z" fill="#FF725E"/>
<path opacity="0.2" d="M199.186 123.576H159.588V127.288H199.186V123.576Z" fill="white"/>
<path d="M174.588 145.512L152.937 145.414L152.919 149.387L174.57 149.486L174.588 145.512Z" fill="#FF725E"/>
<path opacity="0.1" d="M174.588 145.512L152.937 145.414L152.919 149.387L174.57 149.486L174.588 145.512Z" fill="black"/>
<path d="M237.657 169.909C237.827 169.888 237.995 169.857 238.162 169.816C238.397 169.741 238.613 169.617 238.796 169.451C238.979 169.286 239.124 169.083 239.222 168.856C239.355 168.517 239.407 168.151 239.374 167.787C239.374 167.383 239.374 166.946 239.374 166.457C239.374 165.481 239.374 164.37 239.374 163.09V157.745C239.414 157.358 239.329 156.968 239.13 156.634C238.922 156.29 238.596 156.036 238.212 155.918C237.793 155.843 237.366 155.821 236.941 155.851H224.828L154.664 155.59C154.286 155.591 153.922 155.728 153.639 155.978C153.355 156.227 153.172 156.571 153.123 156.945C153.123 157.745 153.123 158.629 153.123 159.47C153.123 161.154 153.123 162.838 153.123 164.521C153.123 165.363 153.123 166.205 153.123 167.047C153.092 167.44 153.109 167.836 153.174 168.225C153.279 168.566 153.495 168.863 153.788 169.067C154.099 169.264 154.464 169.358 154.832 169.336H156.002H158.435L177.064 169.429L208.606 169.622L229.87 169.791L235.653 169.858H237.16H237.665H237.16H235.653H229.87H208.606L177.047 169.825L158.418 169.757H154.756C154.301 169.784 153.849 169.663 153.468 169.412C153.085 169.147 152.806 168.757 152.677 168.309C152.602 167.882 152.579 167.446 152.61 167.013C152.61 166.171 152.61 165.329 152.61 164.488C152.61 162.804 152.61 161.12 152.61 159.437C152.61 158.595 152.61 157.753 152.61 156.911C152.671 156.43 152.906 155.988 153.27 155.667C153.634 155.346 154.103 155.169 154.588 155.169L224.752 155.556L236.865 155.649C237.316 155.621 237.769 155.652 238.212 155.741C238.65 155.884 239.019 156.184 239.248 156.583C239.465 156.954 239.56 157.384 239.517 157.812C239.517 158.208 239.517 158.595 239.517 158.982C239.517 160.506 239.517 161.903 239.517 163.191C239.517 164.479 239.517 165.565 239.517 166.558C239.517 167.038 239.517 167.484 239.517 167.897C239.548 168.273 239.487 168.652 239.34 169C239.231 169.232 239.073 169.438 238.877 169.603C238.681 169.769 238.451 169.89 238.204 169.959C238.02 169.974 237.835 169.957 237.657 169.909Z" fill="#E0E0E0"/>
<path d="M174.425 183.333L152.774 183.235L152.756 187.208L174.407 187.307L174.425 183.333Z" fill="#FF725E"/>
<path opacity="0.1" d="M174.425 183.333L152.774 183.235L152.756 187.208L174.407 187.307L174.425 183.333Z" fill="black"/>
<path d="M237.488 207.714C237.658 207.694 237.827 207.663 237.993 207.621C238.227 207.547 238.443 207.424 238.626 207.26C238.809 207.096 238.955 206.895 239.054 206.67C239.186 206.33 239.238 205.964 239.206 205.601C239.206 205.189 239.206 204.759 239.206 204.263C239.206 203.294 239.206 202.175 239.206 200.895V195.55C239.246 195.163 239.16 194.773 238.961 194.439C238.749 194.102 238.424 193.851 238.044 193.732C237.625 193.654 237.198 193.628 236.773 193.656H224.659L154.495 193.395C154.118 193.396 153.754 193.534 153.47 193.783C153.187 194.032 153.004 194.376 152.955 194.75C152.955 195.592 152.955 196.434 152.955 197.276C152.955 198.959 152.955 200.643 152.955 202.326C152.955 203.168 152.955 204.01 152.955 204.852C152.924 205.242 152.94 205.635 153.005 206.022C153.106 206.365 153.323 206.663 153.62 206.864C153.929 207.065 154.296 207.16 154.664 207.133H158.326L176.955 207.234L208.497 207.428L229.761 207.596L235.544 207.663H237.051C237.387 207.663 237.556 207.663 237.556 207.663C237.556 207.663 237.387 207.663 237.051 207.663H235.544H229.761H208.497L176.955 207.571L158.326 207.495H154.664C154.208 207.526 153.755 207.404 153.376 207.15C152.993 206.885 152.713 206.495 152.584 206.047C152.509 205.619 152.486 205.184 152.517 204.751C152.517 203.909 152.517 203.067 152.517 202.225C152.517 200.542 152.517 198.858 152.517 197.175C152.517 196.333 152.517 195.491 152.517 194.607C152.577 194.126 152.81 193.684 153.172 193.363C153.535 193.042 154.003 192.865 154.487 192.865L224.651 193.252L236.764 193.344C237.215 193.317 237.668 193.348 238.111 193.437C238.549 193.58 238.917 193.88 239.147 194.279C239.364 194.65 239.459 195.08 239.416 195.508C239.416 195.903 239.416 196.299 239.416 196.678C239.416 198.202 239.416 199.599 239.416 200.887C239.416 202.175 239.416 203.261 239.416 204.254C239.416 204.734 239.416 205.18 239.416 205.593C239.448 205.969 239.388 206.348 239.239 206.695C239.13 206.928 238.972 207.134 238.776 207.299C238.58 207.465 238.35 207.586 238.103 207.655C237.905 207.723 237.695 207.743 237.488 207.714Z" fill="#E0E0E0"/>
<path d="M198.341 160.874L158.743 160.694L158.727 164.406L198.324 164.586L198.341 160.874Z" fill="#FF725E"/>
<path opacity="0.2" d="M198.341 160.874L158.743 160.694L158.727 164.406L198.324 164.586L198.341 160.874Z" fill="white"/>
<path d="M162.324 200.845C162.299 201.183 162.176 201.507 161.968 201.776C161.761 202.045 161.48 202.247 161.158 202.358C160.837 202.468 160.491 202.482 160.162 202.397C159.833 202.313 159.537 202.133 159.309 201.882C159.081 201.63 158.932 201.317 158.881 200.981C158.829 200.646 158.877 200.302 159.019 199.994C159.161 199.685 159.39 199.425 159.678 199.246C159.967 199.066 160.301 198.975 160.64 198.984C161.109 199.011 161.549 199.221 161.864 199.569C162.18 199.917 162.345 200.376 162.324 200.845Z" fill="#FF725E"/>
<path d="M167.686 200.87C167.703 201.107 167.67 201.346 167.591 201.57C167.512 201.794 167.387 202 167.225 202.174C167.062 202.348 166.866 202.486 166.648 202.581C166.43 202.676 166.194 202.725 165.956 202.725C165.719 202.725 165.483 202.676 165.265 202.581C165.047 202.486 164.851 202.348 164.688 202.174C164.526 202 164.401 201.794 164.322 201.57C164.242 201.346 164.21 201.107 164.227 200.87C164.21 200.633 164.242 200.395 164.322 200.17C164.401 199.946 164.526 199.741 164.688 199.567C164.851 199.393 165.047 199.254 165.265 199.159C165.483 199.064 165.719 199.015 165.956 199.015C166.194 199.015 166.43 199.064 166.648 199.159C166.866 199.254 167.062 199.393 167.225 199.567C167.387 199.741 167.512 199.946 167.591 200.17C167.67 200.395 167.703 200.633 167.686 200.87Z" fill="#FF725E"/>
<path d="M173.057 200.895C173.032 201.234 172.909 201.558 172.701 201.827C172.494 202.096 172.212 202.298 171.891 202.408C171.57 202.519 171.224 202.532 170.895 202.448C170.566 202.363 170.27 202.184 170.042 201.932C169.814 201.68 169.665 201.367 169.614 201.032C169.562 200.696 169.61 200.353 169.752 200.044C169.894 199.736 170.123 199.476 170.411 199.296C170.699 199.117 171.034 199.026 171.373 199.035C171.842 199.063 172.28 199.274 172.595 199.622C172.91 199.969 173.076 200.427 173.057 200.895Z" fill="#FF725E"/>
<path d="M178.419 200.921C178.394 201.259 178.271 201.583 178.064 201.852C177.856 202.121 177.575 202.323 177.254 202.434C176.933 202.544 176.586 202.558 176.257 202.473C175.929 202.388 175.632 202.209 175.404 201.957C175.176 201.706 175.027 201.392 174.976 201.057C174.924 200.721 174.972 200.378 175.114 200.069C175.256 199.761 175.485 199.501 175.773 199.321C176.062 199.142 176.396 199.051 176.736 199.06C177.204 199.088 177.642 199.299 177.957 199.647C178.272 199.995 178.438 200.452 178.419 200.921Z" fill="#FF725E"/>
<path d="M183.782 200.937C183.758 201.277 183.636 201.601 183.43 201.871C183.223 202.142 182.942 202.345 182.621 202.457C182.3 202.568 181.953 202.583 181.624 202.5C181.295 202.416 180.997 202.237 180.768 201.985C180.54 201.734 180.39 201.421 180.338 201.085C180.286 200.749 180.334 200.405 180.475 200.096C180.617 199.787 180.846 199.527 181.135 199.347C181.423 199.167 181.758 199.076 182.098 199.085C182.565 199.114 183.002 199.323 183.316 199.669C183.631 200.015 183.798 200.47 183.782 200.937Z" fill="#FF725E"/>
<path d="M189.152 200.963C189.129 201.3 189.008 201.623 188.804 201.893C188.599 202.162 188.321 202.366 188.002 202.479C187.683 202.592 187.339 202.61 187.01 202.529C186.682 202.449 186.384 202.274 186.153 202.027C185.923 201.78 185.77 201.47 185.713 201.137C185.656 200.804 185.698 200.461 185.833 200.151C185.968 199.841 186.191 199.578 186.474 199.393C186.757 199.208 187.088 199.11 187.427 199.111C187.901 199.128 188.349 199.333 188.672 199.68C188.995 200.027 189.168 200.488 189.152 200.963Z" fill="#FF725E"/>
<path d="M194.514 200.988C194.531 201.225 194.499 201.463 194.419 201.688C194.34 201.912 194.215 202.117 194.053 202.291C193.89 202.465 193.694 202.604 193.476 202.699C193.258 202.794 193.022 202.843 192.785 202.843C192.547 202.843 192.311 202.794 192.093 202.699C191.875 202.604 191.679 202.465 191.516 202.291C191.354 202.117 191.229 201.912 191.15 201.688C191.071 201.463 191.038 201.225 191.055 200.988C191.038 200.751 191.071 200.512 191.15 200.288C191.229 200.064 191.354 199.858 191.516 199.684C191.679 199.51 191.875 199.372 192.093 199.277C192.311 199.182 192.547 199.133 192.785 199.133C193.022 199.133 193.258 199.182 193.476 199.277C193.694 199.372 193.89 199.51 194.053 199.684C194.215 199.858 194.34 200.064 194.419 200.288C194.499 200.512 194.531 200.751 194.514 200.988Z" fill="#FF725E"/>
<path d="M199.877 201.013C199.854 201.351 199.733 201.674 199.528 201.943C199.324 202.213 199.045 202.416 198.727 202.53C198.408 202.643 198.063 202.66 197.735 202.58C197.406 202.499 197.108 202.325 196.878 202.077C196.647 201.83 196.494 201.521 196.437 201.187C196.38 200.854 196.422 200.511 196.557 200.202C196.693 199.892 196.916 199.628 197.199 199.443C197.482 199.258 197.813 199.16 198.151 199.161C198.625 199.179 199.073 199.384 199.397 199.731C199.72 200.078 199.893 200.539 199.877 201.013Z" fill="#FF725E"/>
<path d="M205.239 201.038C205.216 201.378 205.093 201.702 204.887 201.972C204.681 202.243 204.4 202.446 204.079 202.558C203.758 202.669 203.411 202.684 203.081 202.601C202.752 202.517 202.454 202.338 202.226 202.086C201.997 201.835 201.847 201.522 201.795 201.186C201.743 200.85 201.791 200.506 201.933 200.197C202.074 199.888 202.304 199.628 202.592 199.448C202.881 199.268 203.216 199.177 203.555 199.186C204.022 199.215 204.459 199.424 204.774 199.77C205.088 200.116 205.255 200.571 205.239 201.038Z" fill="#FF725E"/>
<g opacity="0.2">
<path d="M162.324 200.845C162.299 201.183 162.176 201.507 161.968 201.776C161.761 202.045 161.48 202.247 161.158 202.358C160.837 202.468 160.491 202.482 160.162 202.397C159.833 202.313 159.537 202.133 159.309 201.882C159.081 201.63 158.932 201.317 158.881 200.981C158.829 200.646 158.877 200.302 159.019 199.994C159.161 199.685 159.39 199.425 159.678 199.246C159.967 199.066 160.301 198.975 160.64 198.984C161.109 199.011 161.549 199.221 161.864 199.569C162.18 199.917 162.345 200.376 162.324 200.845Z" fill="white"/>
<path d="M167.686 200.87C167.703 201.107 167.67 201.346 167.591 201.57C167.512 201.794 167.387 202 167.225 202.174C167.062 202.348 166.866 202.486 166.648 202.581C166.43 202.676 166.194 202.725 165.956 202.725C165.719 202.725 165.483 202.676 165.265 202.581C165.047 202.486 164.851 202.348 164.688 202.174C164.526 202 164.401 201.794 164.322 201.57C164.242 201.346 164.21 201.107 164.227 200.87C164.21 200.633 164.242 200.395 164.322 200.17C164.401 199.946 164.526 199.741 164.688 199.567C164.851 199.393 165.047 199.254 165.265 199.159C165.483 199.064 165.719 199.015 165.956 199.015C166.194 199.015 166.43 199.064 166.648 199.159C166.866 199.254 167.062 199.393 167.225 199.567C167.387 199.741 167.512 199.946 167.591 200.17C167.67 200.395 167.703 200.633 167.686 200.87Z" fill="white"/>
<path d="M173.057 200.895C173.032 201.234 172.909 201.558 172.701 201.827C172.494 202.096 172.212 202.298 171.891 202.408C171.57 202.519 171.224 202.532 170.895 202.448C170.566 202.363 170.27 202.184 170.042 201.932C169.814 201.68 169.665 201.367 169.614 201.032C169.562 200.696 169.61 200.353 169.752 200.044C169.894 199.736 170.123 199.476 170.411 199.296C170.699 199.117 171.034 199.026 171.373 199.035C171.842 199.063 172.28 199.274 172.595 199.622C172.91 199.969 173.076 200.427 173.057 200.895Z" fill="white"/>
<path d="M178.419 200.921C178.394 201.259 178.271 201.583 178.064 201.852C177.856 202.121 177.575 202.323 177.254 202.434C176.933 202.544 176.586 202.558 176.257 202.473C175.929 202.388 175.632 202.209 175.404 201.957C175.176 201.706 175.027 201.392 174.976 201.057C174.924 200.721 174.972 200.378 175.114 200.069C175.256 199.761 175.485 199.501 175.773 199.321C176.062 199.142 176.396 199.051 176.736 199.06C177.204 199.088 177.642 199.299 177.957 199.647C178.272 199.995 178.438 200.452 178.419 200.921Z" fill="white"/>
<path d="M183.782 200.937C183.758 201.277 183.636 201.601 183.43 201.871C183.223 202.142 182.942 202.345 182.621 202.457C182.3 202.568 181.953 202.583 181.624 202.5C181.295 202.416 180.997 202.237 180.768 201.985C180.54 201.734 180.39 201.421 180.338 201.085C180.286 200.749 180.334 200.405 180.475 200.096C180.617 199.787 180.846 199.527 181.135 199.347C181.423 199.167 181.758 199.076 182.098 199.085C182.565 199.114 183.002 199.323 183.316 199.669C183.631 200.015 183.798 200.47 183.782 200.937Z" fill="white"/>
<path d="M189.152 200.963C189.129 201.3 189.008 201.623 188.804 201.893C188.599 202.162 188.321 202.366 188.002 202.479C187.684 202.592 187.339 202.61 187.01 202.529C186.682 202.449 186.384 202.274 186.153 202.027C185.923 201.78 185.77 201.47 185.713 201.137C185.656 200.804 185.698 200.461 185.833 200.151C185.968 199.841 186.191 199.578 186.474 199.393C186.757 199.208 187.088 199.11 187.427 199.111C187.901 199.128 188.349 199.333 188.672 199.68C188.995 200.027 189.168 200.488 189.152 200.963Z" fill="white"/>
<path d="M194.514 200.988C194.531 201.225 194.499 201.463 194.419 201.688C194.34 201.912 194.215 202.117 194.053 202.291C193.89 202.465 193.694 202.604 193.476 202.699C193.258 202.794 193.022 202.843 192.785 202.843C192.547 202.843 192.311 202.794 192.093 202.699C191.875 202.604 191.679 202.465 191.516 202.291C191.354 202.117 191.229 201.912 191.15 201.688C191.071 201.463 191.038 201.225 191.055 200.988C191.038 200.751 191.071 200.512 191.15 200.288C191.229 200.064 191.354 199.858 191.516 199.684C191.679 199.51 191.875 199.372 192.093 199.277C192.311 199.182 192.547 199.133 192.785 199.133C193.022 199.133 193.258 199.182 193.476 199.277C193.694 199.372 193.89 199.51 194.053 199.684C194.215 199.858 194.34 200.064 194.419 200.288C194.499 200.512 194.531 200.751 194.514 200.988Z" fill="white"/>
<path d="M199.877 201.013C199.854 201.351 199.733 201.674 199.528 201.943C199.324 202.213 199.045 202.416 198.727 202.53C198.408 202.643 198.063 202.66 197.735 202.58C197.406 202.499 197.108 202.325 196.878 202.077C196.647 201.83 196.494 201.521 196.437 201.187C196.38 200.854 196.422 200.511 196.557 200.202C196.693 199.892 196.916 199.628 197.199 199.443C197.482 199.258 197.813 199.16 198.151 199.161C198.625 199.179 199.073 199.384 199.397 199.731C199.72 200.078 199.893 200.539 199.877 201.013Z" fill="white"/>
<path d="M205.239 201.038C205.216 201.378 205.093 201.702 204.887 201.972C204.681 202.243 204.4 202.446 204.079 202.558C203.758 202.669 203.411 202.684 203.081 202.601C202.752 202.517 202.454 202.338 202.226 202.086C201.997 201.835 201.847 201.522 201.795 201.186C201.743 200.85 201.791 200.506 201.933 200.197C202.074 199.888 202.304 199.628 202.592 199.448C202.881 199.268 203.216 199.177 203.555 199.186C204.022 199.215 204.459 199.424 204.774 199.77C205.088 200.116 205.255 200.571 205.239 201.038Z" fill="white"/>
</g>
<path d="M197.621 79.5163C198.205 79.2588 198.702 78.835 199.047 78.2977C199.393 77.7603 199.573 77.1332 199.565 76.4943C199.587 76.0789 199.524 75.6635 199.38 75.2733C199.236 74.8831 199.014 74.5263 198.728 74.2246C198.442 73.9229 198.097 73.6826 197.715 73.5184C197.333 73.3542 196.921 73.2696 196.505 73.2696C196.089 73.2696 195.678 73.3542 195.296 73.5184C194.914 73.6826 194.569 73.9229 194.283 74.2246C193.996 74.5263 193.774 74.8831 193.631 75.2733C193.487 75.6635 193.424 76.0789 193.445 76.4943C193.433 77.1396 193.611 77.7742 193.959 78.3181C194.306 78.8619 194.807 79.2906 195.398 79.55C190.684 80.2571 190.895 85.3753 190.895 85.3753L202.04 85.4258C202.04 85.4258 202.301 80.215 197.621 79.5163Z" fill="#FF725E"/>
<path opacity="0.1" d="M197.621 79.5163C198.205 79.2588 198.702 78.835 199.047 78.2977C199.393 77.7603 199.573 77.1332 199.565 76.4943C199.587 76.0789 199.524 75.6635 199.38 75.2733C199.236 74.8831 199.014 74.5263 198.728 74.2246C198.442 73.9229 198.097 73.6826 197.715 73.5184C197.333 73.3542 196.921 73.2696 196.505 73.2696C196.089 73.2696 195.678 73.3542 195.296 73.5184C194.914 73.6826 194.569 73.9229 194.283 74.2246C193.996 74.5263 193.774 74.8831 193.631 75.2733C193.487 75.6635 193.424 76.0789 193.445 76.4943C193.433 77.1396 193.611 77.7742 193.959 78.3181C194.306 78.8619 194.807 79.2906 195.398 79.55C190.684 80.2571 190.895 85.3753 190.895 85.3753L202.04 85.4258C202.04 85.4258 202.301 80.215 197.621 79.5163Z" fill="black"/>
<path d="M215.732 88.7268L176.008 88.5466L175.986 93.2943L215.71 93.4745L215.732 88.7268Z" fill="#FF725E"/>
<path opacity="0.2" d="M215.732 88.7268L176.008 88.5466L175.986 93.2943L215.71 93.4745L215.732 88.7268Z" fill="white"/>
<path d="M69.6925 113.331H69.2969L68.1521 113.416C67.5325 113.453 66.9164 113.534 66.3085 113.66C65.9148 113.715 65.5242 113.791 65.1384 113.887L63.8336 114.249C61.6128 114.93 59.5175 115.968 57.6296 117.322C55.1352 119.132 53.0524 121.45 51.5181 124.123C50.6163 125.664 49.8987 127.306 49.3799 129.014C48.8349 130.871 48.521 132.788 48.4455 134.722C48.3954 135.737 48.4122 136.755 48.496 137.769C48.496 138.282 48.6392 138.796 48.7065 139.318C48.7631 139.844 48.8617 140.365 49.0011 140.875C49.7581 144.253 51.294 147.407 53.4863 150.086C55.6786 152.765 58.4667 154.895 61.6281 156.305C63.9162 157.293 66.3686 157.844 68.8592 157.93C71.4315 158.071 74.0063 157.702 76.4353 156.844L77.1761 156.566H77.2771L77.3613 156.617L87.9764 162.004L87.665 162.274C86.5285 158.755 85.4342 155.346 84.3735 152.071V151.945L84.4661 151.852C87.0412 149.258 88.9528 146.082 90.0388 142.592C91.0225 139.402 91.3096 136.037 90.8806 132.726C90.4991 129.784 89.553 126.943 88.0943 124.359C86.8369 122.139 85.2148 120.147 83.296 118.466C81.713 117.136 79.9609 116.021 78.0853 115.15C76.6661 114.538 75.1881 114.072 73.6742 113.761L71.9907 113.483L70.77 113.39L70.0293 113.34H69.7767C69.8606 113.331 69.9453 113.331 70.0293 113.34H70.7785L71.9991 113.39L73.6827 113.634C75.2153 113.923 76.7135 114.372 78.1526 114.973C80.0604 115.833 81.8441 116.946 83.456 118.281C85.41 119.955 87.0665 121.947 88.3552 124.174C89.8554 126.785 90.8305 129.665 91.2258 132.651C91.6903 136.013 91.4232 139.436 90.4429 142.685C89.3498 146.247 87.4086 149.491 84.786 152.138L84.8365 151.919C85.8972 155.194 86.9999 158.603 88.1448 162.114L88.3047 162.627L87.8249 162.383L77.2098 157.004H77.395L76.6374 157.282C74.1616 158.153 71.5391 158.53 68.9181 158.393C66.3739 158.296 63.8701 157.725 61.5355 156.709C57.0821 154.802 53.377 151.487 50.9878 147.273C49.8883 145.326 49.0854 143.227 48.6055 141.043C48.4741 140.52 48.3757 139.988 48.3108 139.452C48.2435 138.922 48.1341 138.4 48.1088 137.878C47.881 134.883 48.1976 131.871 49.0432 128.989C49.5749 127.257 50.3125 125.595 51.2403 124.039C52.8112 121.342 54.9374 119.009 57.478 117.195C59.397 115.838 61.5276 114.809 63.7831 114.148L65.1047 113.811C65.4937 113.721 65.8871 113.651 66.2833 113.601C66.8975 113.487 67.5193 113.42 68.1436 113.399L69.2969 113.357C69.428 113.339 69.5602 113.331 69.6925 113.331Z" fill="#FF725E"/>
<path d="M74.4908 132.962H72.9335L69.5663 128.231V125.125C69.5663 125.125 67.1587 124.973 67.4449 129.039C67.7311 133.105 67.4449 132.07 67.4449 132.07C67.4449 132.07 62.3352 132.07 61.9143 132.533C61.4934 132.996 61.4682 137.929 61.4092 140.681C61.377 141.345 61.5674 142 61.9502 142.543C62.333 143.086 62.8863 143.486 63.5221 143.678C63.7004 143.728 63.8844 143.753 64.0693 143.754C65.3489 143.754 71.856 142.719 71.856 142.719H74.5413L74.4908 132.962Z" fill="#FF725E"/>
<path d="M78.9439 132.129L77.9843 142.769H75.3242V132.348L78.9439 132.129Z" fill="#FF725E"/>
<path d="M110.671 348.749V341.552L97.7665 341.459L97.6571 352.343L98.4568 352.402C102.018 352.63 116.572 352.966 118.963 352.226C121.623 351.401 110.671 348.749 110.671 348.749Z" fill="#FF725E"/>
<path d="M119.266 351.552C119.266 351.67 114.434 351.771 108.483 351.771C102.531 351.771 97.6992 351.67 97.6992 351.552C97.6992 351.434 102.531 351.333 108.483 351.333C114.434 351.333 119.266 351.434 119.266 351.552Z" fill="#263238"/>
<path d="M110.899 350.222C110.789 350.163 110.899 349.784 111.16 349.38C111.42 348.976 111.774 348.808 111.858 348.892C111.942 348.976 111.766 349.296 111.513 349.641C111.261 349.986 111.008 350.281 110.899 350.222Z" fill="#263238"/>
<path d="M111.724 350.693C111.606 350.693 111.665 350.222 111.917 349.776C112.17 349.33 112.506 349.06 112.599 349.128C112.692 349.195 112.54 349.574 112.304 349.969C112.069 350.365 111.833 350.736 111.724 350.693Z" fill="#263238"/>
<path d="M101.588 351.518C101.538 351.518 101.344 351.367 101.066 351.047C100.727 350.636 100.35 350.258 99.9384 349.919C99.534 349.596 99.0523 349.384 98.541 349.304C98.1453 349.254 97.8928 349.304 97.8675 349.254C97.8423 349.203 98.0864 349.027 98.5494 348.993C99.1604 348.98 99.7565 349.183 100.233 349.565C100.679 349.929 101.056 350.371 101.344 350.87C101.538 351.241 101.639 351.485 101.588 351.518Z" fill="#263238"/>
<path d="M110.941 348.867C111 348.968 110.781 349.22 110.41 349.355C110.04 349.49 109.712 349.439 109.695 349.355C109.678 349.271 109.939 349.094 110.259 348.976C110.579 348.858 110.873 348.766 110.941 348.867Z" fill="#263238"/>
<path d="M110.739 348.168C110.739 348.294 110.402 348.395 109.964 348.404C109.526 348.412 109.181 348.311 109.19 348.193C109.198 348.075 109.543 347.966 109.964 347.958C110.385 347.949 110.722 348.05 110.739 348.168Z" fill="#263238"/>
<path d="M142.449 348.749V341.552L129.544 341.459L129.435 352.234L130.235 352.293C133.796 352.52 148.359 352.966 150.741 352.226C153.401 351.401 142.449 348.749 142.449 348.749Z" fill="#FF725E"/>
<path d="M151.044 351.569C151.044 351.687 146.22 351.788 140.261 351.788C134.301 351.788 129.486 351.687 129.486 351.569C129.486 351.451 134.309 351.35 140.261 351.35C146.212 351.35 151.044 351.451 151.044 351.569Z" fill="#263238"/>
<path d="M142.677 350.222C142.575 350.163 142.677 349.784 142.937 349.38C143.198 348.976 143.552 348.808 143.636 348.892C143.72 348.976 143.544 349.296 143.291 349.641C143.038 349.986 142.786 350.281 142.677 350.222Z" fill="#263238"/>
<path d="M143.501 350.693C143.392 350.693 143.443 350.222 143.703 349.776C143.964 349.33 144.293 349.06 144.385 349.128C144.478 349.195 144.318 349.574 144.082 349.969C143.847 350.365 143.619 350.736 143.501 350.693Z" fill="#263238"/>
<path d="M133.366 351.518C133.316 351.518 133.13 351.367 132.844 351.047C132.505 350.636 132.127 350.258 131.716 349.919C131.312 349.596 130.83 349.384 130.319 349.304C129.932 349.254 129.671 349.304 129.645 349.254C129.62 349.203 129.864 349.027 130.327 348.993C130.938 348.98 131.534 349.183 132.011 349.565C132.46 349.927 132.837 350.37 133.122 350.87C133.316 351.241 133.417 351.485 133.366 351.518Z" fill="#263238"/>
<path d="M142.719 348.867C142.778 348.968 142.559 349.22 142.188 349.355C141.818 349.49 141.49 349.439 141.473 349.355C141.456 349.271 141.717 349.094 142.037 348.976C142.357 348.858 142.651 348.766 142.719 348.867Z" fill="#263238"/>
<path d="M142.533 348.168C142.533 348.294 142.197 348.395 141.759 348.404C141.321 348.412 140.984 348.311 140.993 348.193C141.001 348.075 141.338 347.966 141.759 347.958C142.18 347.949 142.533 348.05 142.533 348.168Z" fill="#263238"/>
<path d="M189.994 135.016C189.657 134.671 188.824 134.839 188.824 134.839C188.907 134.355 188.907 133.859 188.824 133.375C188.672 132.903 187.612 132.996 187.612 132.996C187.563 132.599 187.563 132.197 187.612 131.8C187.62 131.712 187.601 131.624 187.558 131.547C187.514 131.47 187.448 131.409 187.368 131.371C186.866 131.167 186.327 131.069 185.785 131.085C185.137 130.622 187.763 126.943 188.74 125.765C189.716 124.586 189.539 123.669 188.672 123.669C188.075 123.669 185.011 127.204 184.068 128.391C183.125 129.578 180.625 132.878 180.541 130.243C180.456 127.608 179.396 125.622 178.731 125.285C178.066 124.948 177.359 125.74 177.721 126.472C178.039 127.304 178.237 128.177 178.31 129.065C178.401 129.772 178.37 130.489 178.217 131.186C177.938 132.482 177.558 133.754 177.081 134.991H177.013C177.013 134.991 158.645 152.61 157.315 153.864C156.128 154.992 132.255 152.526 127.465 152.02C125.838 151.782 124.194 151.67 122.549 151.684C120.47 151.776 120.099 152.071 118.029 152.096C112.799 152.154 107.581 152.613 102.422 153.468C100.085 153.866 97.903 154.897 96.1128 156.45C94.3225 158.002 92.9931 160.017 92.2696 162.274C87.4461 177.342 76.5195 213.009 74.5918 233.044C73.1351 235.685 71.82 238.402 70.6522 241.184C69.2969 244.871 69.6252 244.997 70.0798 245.081C71.3088 245.309 72.7062 238.692 73.2281 240.292C73.75 241.891 70.5764 248.179 71.8644 248.364C73.548 248.6 74.8864 241.63 75.0464 241.074C75.2063 240.519 76.0397 240.696 75.8882 241.217C75.644 241.958 73.2786 249.812 74.9285 250.065C75.8377 250.199 75.9387 248.541 75.9387 248.541C75.9387 248.541 77.6223 241.024 78.3883 241.175C79.1543 241.327 78.3378 245.763 77.9506 247.245C77.5633 248.726 78.1021 249.476 78.8934 249.114C79.4321 248.861 80.7201 244.357 81.0736 242.893C81.4272 241.428 82.3111 237.37 83.498 239.719C84.685 242.068 86.4864 243.431 87.2272 243.465C87.3941 243.446 87.5515 243.377 87.679 243.268C87.8065 243.158 87.8983 243.013 87.9427 242.851C87.9871 242.689 87.9819 242.517 87.9279 242.358C87.8739 242.199 87.7735 242.06 87.6397 241.958C87.0025 241.336 86.4557 240.628 86.015 239.854C85.6223 239.251 85.3375 238.584 85.1732 237.884C84.834 236.488 84.6366 235.06 84.584 233.624L84.4493 232.783C86.3349 223.447 91.7645 196.047 99.6016 178.546L102.817 185.162L104.215 190.061L95.6452 211.216L132.196 210.736L126.741 189.741L133.366 167.855C140.53 168.015 158.923 168.284 161.987 166.895C165.843 165.211 185.785 140.025 185.785 140.025C187.085 139.015 188.33 137.936 189.514 136.792C189.514 136.792 190.726 135.774 189.994 135.016Z" fill="#FFBE9D"/>
<path d="M94.0374 195.584C95.098 191.964 100.544 174.067 100.544 174.067C100.544 174.067 103.221 188.656 102.514 190.415C101.864 191.921 101.095 193.374 100.216 194.759C94.0374 204.162 94.8455 208.867 94.8455 208.867L132.179 207.731C132.263 202.512 129.174 190.373 128.534 188.437C127.895 186.501 130.024 180.162 130.024 180.162C130.024 180.162 134.233 175.877 134.082 173.672C134.002 171.69 133.757 169.719 133.349 167.779L156.078 168.621L155.362 153.216L122.717 149.95C121.581 153.157 111.303 151.583 111.303 151.583C100.208 151.953 99.5175 153.99 94.9044 157.576C90.2914 161.162 82.6562 191.939 82.6562 191.939L94.0374 195.584Z" fill="#FF725E"/>
<path d="M116.109 191.939C115.462 192.054 114.803 192.088 114.148 192.04C112.927 192.04 111.252 191.955 109.409 191.77C107.565 191.585 105.898 191.324 104.711 191.088C104.057 191.004 103.415 190.84 102.8 190.6C103.459 190.6 104.115 190.662 104.762 190.785C105.957 190.937 107.616 191.147 109.451 191.332C111.286 191.518 112.953 191.644 114.156 191.728C114.813 191.736 115.466 191.807 116.109 191.939Z" fill="#263238"/>
<path d="M118.668 188.765C118.021 189.082 117.337 189.317 116.631 189.464C113.273 190.346 109.808 190.757 106.336 190.684C105.618 190.708 104.899 190.64 104.198 190.482C104.907 190.393 105.622 190.356 106.336 190.373C107.658 190.331 109.476 190.238 111.479 190.002C113.483 189.767 115.268 189.43 116.53 189.161C117.232 188.973 117.946 188.841 118.668 188.765Z" fill="#263238"/>
<path d="M131.228 174.606C131.211 175.248 131.123 175.886 130.967 176.508C130.748 177.678 130.411 179.278 129.982 181.029C129.553 182.78 129.14 184.396 128.77 185.49C128.621 186.117 128.401 186.724 128.113 187.3C128.16 186.66 128.279 186.028 128.467 185.415C128.787 184.101 129.149 182.586 129.553 180.928C129.957 179.269 130.344 177.754 130.664 176.441C130.778 175.809 130.967 175.193 131.228 174.606Z" fill="#263238"/>
<path d="M94.433 193.437C92.4855 193.136 90.5636 192.689 88.6835 192.099C86.7624 191.649 84.8772 191.058 83.0435 190.331C84.99 190.636 86.9116 191.084 88.7929 191.669C90.7145 192.117 92.5998 192.708 94.433 193.437Z" fill="#263238"/>
<path d="M133.753 167.594C133.436 167.648 133.111 167.648 132.794 167.594C131.915 167.504 131.051 167.297 130.226 166.979C128.849 166.462 127.596 165.662 126.546 164.631C125.496 163.6 124.674 162.362 124.132 160.994C123.532 159.49 123.276 157.871 123.382 156.255C123.42 154.922 123.819 153.624 124.536 152.5C125.04 151.743 125.794 151.186 126.665 150.926C126.898 150.862 127.139 150.831 127.381 150.834C127.549 150.834 127.634 150.834 127.634 150.834C127.634 150.834 127.28 150.834 126.716 151.061C125.916 151.356 125.238 151.91 124.788 152.635C123.643 154.436 123.324 157.728 124.544 160.8C125.112 162.249 126.002 163.55 127.145 164.605C128.082 165.469 129.162 166.164 130.336 166.659C131.437 167.095 132.583 167.408 133.753 167.594Z" fill="#263238"/>
<path d="M153.376 168.318C153.165 165.736 153.098 163.145 153.174 160.556C153.108 157.97 153.186 155.381 153.409 152.803C153.62 155.382 153.688 157.97 153.611 160.556C153.682 163.146 153.604 165.737 153.376 168.318Z" fill="#263238"/>
<path d="M122.499 150.892C122.591 149.015 122.785 146.894 122.785 146.894C122.785 146.894 127.432 146.38 127.709 141.582C127.987 136.784 127.709 125.714 127.709 125.714L119.291 121.404L109.947 128.753L111.387 152.744L119.956 153.292C120.611 153.31 121.247 153.067 121.723 152.618C122.2 152.168 122.479 151.547 122.499 150.892Z" fill="#FFBE9D"/>
<path d="M123.332 137.786C123.332 137.786 123.332 137.878 123.256 137.988C123.194 138.067 123.113 138.13 123.02 138.171C122.928 138.212 122.827 138.23 122.726 138.223C122.187 138.223 121.665 137.6 121.48 136.877C121.392 136.526 121.392 136.158 121.48 135.807C121.497 135.654 121.553 135.508 121.641 135.381C121.729 135.255 121.847 135.153 121.985 135.083C122.098 135.037 122.225 135.037 122.339 135.083C122.423 135.125 122.491 135.193 122.532 135.277C122.591 135.42 122.532 135.513 122.532 135.504C122.532 135.496 122.532 135.42 122.448 135.336C122.404 135.276 122.339 135.234 122.266 135.218C122.193 135.203 122.117 135.215 122.052 135.252C121.949 135.314 121.863 135.402 121.803 135.506C121.743 135.611 121.71 135.729 121.707 135.85C121.636 136.163 121.636 136.488 121.707 136.801C121.876 137.457 122.33 137.988 122.734 138.038C122.813 138.049 122.894 138.043 122.971 138.022C123.047 138 123.119 137.962 123.18 137.912C123.281 137.845 123.315 137.777 123.332 137.786Z" fill="#EB996E"/>
<path d="M130.597 123.122C129.949 120.916 127.6 119.822 125.462 119.216C122.204 118.29 118.685 117.886 115.503 119.056C112.321 120.226 108.499 122.28 108.499 125.79C106.622 125.638 105.545 127.28 104.804 129.317C104.33 130.558 104.047 131.864 103.962 133.189C103.726 137.786 102.439 144.133 99.4585 147.5C97.7749 149.377 95.4432 150.674 94.4835 153.014C93.6417 155.043 94.0794 157.45 93.2966 159.504C92.5979 161.314 91.0574 162.602 89.9294 164.176C88.7802 165.962 88.1039 168.01 87.964 170.129C87.8241 172.248 88.2252 174.368 89.1297 176.29C90.0406 178.162 91.3232 179.829 92.8992 181.189C94.4753 182.549 96.3118 183.575 98.2969 184.202C102.229 185.399 106.422 185.44 110.377 184.32C113.345 183.611 116.113 182.238 118.475 180.305C120.891 178.332 122.551 175.584 123.172 172.527C123.77 169.092 122.81 165.599 122.095 162.181C119.855 151.381 120.495 150.817 123.324 140.791C123.391 140.614 123.425 140.429 123.475 140.252C123.526 140.075 123.551 139.991 123.585 139.856C123.665 139.46 123.707 139.057 123.711 138.653C123.298 138.806 122.849 138.839 122.418 138.746C121.987 138.654 121.592 138.44 121.278 138.131C120.963 137.801 120.744 137.392 120.643 136.947C120.543 136.502 120.564 136.039 120.706 135.605C120.904 135.131 121.2 134.704 121.574 134.352C121.948 134 122.392 133.73 122.877 133.56C123.812 133.173 124.814 132.971 125.731 132.541C127.676 131.615 129.023 129.696 129.94 127.684C130.694 126.29 130.927 124.672 130.597 123.122Z" fill="#263238"/>
<path d="M123.669 138.013C123.847 138.276 123.993 138.558 124.106 138.855C124.359 139.385 124.696 140.134 125.066 141.001L125.133 141.161H124.957L124.115 141.237C123.534 141.237 123.046 141.346 122.473 141.338C122.423 141.327 122.377 141.303 122.339 141.269C122.301 141.236 122.272 141.193 122.254 141.144C122.229 141.068 122.229 140.985 122.254 140.909C122.274 140.795 122.299 140.683 122.33 140.572L122.482 139.974C122.558 139.576 122.676 139.186 122.835 138.813C122.82 139.219 122.76 139.623 122.659 140.016L122.541 140.614C122.499 140.816 122.423 141.128 122.541 141.102C122.962 141.102 123.559 141.01 124.115 140.976L124.957 140.9L124.847 141.086C124.485 140.244 124.182 139.452 124.005 138.905C123.85 138.626 123.737 138.325 123.669 138.013Z" fill="#FF725E"/>
<path d="M94.8455 208.867L132.179 207.731L148.426 271.152L145.438 343.9H125.697L128.113 272.701L113.677 228.548L115.899 346.72L95.9482 347.015L93.8522 235.939C93.7596 232.85 92.7494 225.888 93.1282 222.824L94.8455 208.867Z" fill="#263238"/>
<path d="M118.643 229.449C118.032 229.488 117.419 229.451 116.816 229.34C115.688 229.205 114.148 228.969 112.456 228.633C110.764 228.296 109.249 227.909 108.154 227.597C107.569 227.469 107.003 227.265 106.471 226.991C106.471 226.865 109.215 227.521 112.582 228.203C115.949 228.885 118.66 229.323 118.643 229.449Z" fill="#455A64"/>
<path d="M145.236 339.91C145.236 340.028 140.766 340.129 135.252 340.129C129.738 340.129 125.26 340.028 125.26 339.91C125.26 339.792 129.73 339.691 135.252 339.691C140.774 339.691 145.236 339.784 145.236 339.91Z" fill="#455A64"/>
<path d="M115.722 343.648C115.722 343.774 111.378 343.866 106.025 343.866C100.671 343.866 96.3355 343.774 96.3355 343.648C96.3355 343.521 100.679 343.429 106.025 343.429C111.37 343.429 115.722 343.53 115.722 343.648Z" fill="#455A64"/>
<path d="M113.146 343.345C113.028 343.345 112.506 317.527 111.976 285.681C111.446 253.836 111.134 228.001 111.244 228.001C111.353 228.001 111.892 253.811 112.414 285.673C112.936 317.535 113.272 343.345 113.146 343.345Z" fill="#455A64"/>
<path d="M142.584 339.91C142.575 339.795 142.575 339.68 142.584 339.565V338.555C142.584 337.646 142.651 336.341 142.702 334.682C142.82 331.315 142.988 326.424 143.198 320.431C143.653 308.376 144.293 291.759 144.991 273.416C144.991 273.24 144.991 273.071 144.991 272.92V272.979C140.572 255.301 136.573 239.256 133.669 227.648L130.302 213.918C129.915 212.31 129.62 211.056 129.41 210.18C129.309 209.768 129.241 209.448 129.182 209.204C129.15 209.094 129.13 208.981 129.124 208.867C129.167 208.973 129.201 209.083 129.225 209.195C129.292 209.431 129.376 209.751 129.494 210.155C129.721 210.997 130.05 212.276 130.47 213.876C131.312 217.125 132.499 221.806 133.981 227.572C136.91 239.172 140.951 255.175 145.429 272.878V272.936C145.429 273.088 145.429 273.265 145.429 273.433C144.68 291.776 143.998 308.385 143.501 320.439C143.24 326.441 143.022 331.298 142.87 334.682C142.786 336.366 142.719 337.646 142.676 338.555C142.676 338.984 142.626 339.321 142.618 339.565C142.619 339.681 142.608 339.797 142.584 339.91Z" fill="#455A64"/>
<path d="M136.144 271.438C134.726 271.904 133.266 272.229 131.784 272.406C129.965 272.718 128.416 272.936 127.718 272.97V272.802C127.945 272.869 128.063 272.911 128.063 272.945C128.063 272.979 127.92 272.945 127.684 272.945H127.179L127.684 272.793C128.341 272.6 129.89 272.28 131.708 271.952C133.166 271.635 134.652 271.463 136.144 271.438Z" fill="#455A64"/>
<path d="M135.799 273.854C134.486 273.914 133.17 273.855 131.868 273.677C130.553 273.65 129.243 273.507 127.953 273.248C130.584 273.033 133.232 273.238 135.799 273.854Z" fill="#455A64"/>
<path opacity="0.2" d="M94.6855 210.206C95.1277 210.773 95.6846 211.242 96.3199 211.579C96.9552 211.917 97.6547 212.118 98.3726 212.167C99.8762 212.345 101.397 212.317 102.893 212.083C112.532 211.014 122.743 210.029 132.179 207.731C119.965 208.413 107.06 208.185 94.8455 208.867L94.7192 209.911" fill="black"/>
<g opacity="0.2">
<path d="M107.27 227.42L114.156 254.139L113.677 228.548L107.27 227.42Z" fill="black"/>
</g>
</svg>
